<svg width="72" height="39" viewBox="0 0 72 39" fill="none" xmlns="http://www.w3.org/2000/svg">
<g id="Icon" clip-path="url(#clip0_217_248)">
<path id="Vector" d="M60.749 32.0097L60.7918 39L61.9507 38.9919L61.913 33.2653L71.0327 33.206L71.025 31.9427L60.7464 32.0071L60.749 32.0097ZM58.4314 24.4755L60.9287 31.4255L62.0203 31.0338L59.9499 25.2724L63.3348 24.0571L65.2445 29.3789L66.2797 29.0058L64.37 23.6844L67.4387 22.5823L69.5095 28.3432L70.6011 27.952L68.1038 21.0019L58.4314 24.4755ZM55.709 20.5784C57.2779 22.5013 59.6252 23.1262 61.6769 22.0214L61.1381 20.8705C59.3704 21.7234 57.7502 21.2461 56.6077 19.8459C55.1402 18.0485 55.3818 15.6941 57.3398 14.0977C59.2979 12.502 61.6527 12.7407 63.1173 14.5406C64.2492 15.9298 64.4561 17.5767 63.426 18.9875L64.4531 19.7603C65.7783 18.1104 65.5638 15.7098 64.016 13.8085C62.058 11.4075 58.9037 11.1366 56.5136 13.0866C54.1236 15.0366 53.751 18.1804 55.709 20.581M46.745 11.4584L50.6691 4.53587L53.0053 5.8606C55.1779 7.09206 55.6904 8.86741 54.3623 11.2036C52.9998 13.6042 51.2512 14.0146 49.054 12.7678L46.742 11.4558L46.745 11.4584ZM45.0739 11.845L48.5233 13.8001C51.3207 15.3855 53.7802 14.8895 55.5026 11.8501C57.1601 8.92676 56.3903 6.44517 53.6166 4.87373L50.1431 2.90508L45.0739 11.8475V11.845ZM37.0696 10.1336L44.3494 11.3863L44.5453 10.2434L38.51 9.20527L39.1192 5.65966L44.6903 6.61728L44.8781 5.53079L39.307 4.57063L39.8594 1.35737L45.8946 2.39511L46.0905 1.25266L38.8106 0L37.067 10.1307L37.07 10.1336H37.0696ZM32.0081 9.54864C29.6829 9.98103 27.7757 8.62875 27.317 6.14759C26.8584 3.66388 28.1539 1.72193 30.4794 1.28997C32.805 0.860967 34.7122 2.20986 35.1709 4.69399C35.6296 7.1777 34.3332 9.11964 32.0081 9.54864ZM32.22 10.689C35.3235 10.1146 37.0026 7.48885 36.4422 4.45533C35.8818 1.42435 33.3735 -0.426457 30.2696 0.147522C27.1797 0.718957 25.4709 3.35018 26.0317 6.38116C26.5922 9.41469 29.1297 11.2574 32.22 10.686M23.1724 13.8056C25.6913 12.2121 26.2865 9.66395 24.9347 7.52912L24.4548 6.77286L20.4848 9.28582L21.0669 10.2032L23.9584 8.37398C24.8249 9.77162 24.4518 11.625 22.5527 12.8263C20.643 14.0362 18.3632 13.4809 17.0194 11.3566C15.67 9.22138 16.1503 6.93649 18.0626 5.72664C19.5514 4.78513 21.1953 4.90849 22.5044 6.13148L23.395 5.20353C21.8956 3.6855 19.4895 3.45192 17.4433 4.74783C14.8629 6.38116 14.2754 9.46301 15.9142 12.0569C17.5556 14.6504 20.5921 15.4389 23.1724 13.8056ZM14.4475 21.6836L15.2334 20.6963L11.8429 17.9981L15.3699 13.5614L14.5094 12.8747L10.979 17.3113L8.09598 15.018L11.918 10.2142L11.0112 9.49268L6.4033 15.2833L14.4475 21.6836ZM6.38973 26.793L2.8119 25.5085L4.04295 22.0804C4.5686 20.6157 5.43508 20.1143 6.60974 20.5382C7.79797 20.9646 8.14939 21.9006 7.63137 23.3381L6.38973 26.793ZM8.88192 23.2419C9.40757 21.3856 8.75305 19.9506 7.03874 19.3334C5.22863 18.6848 3.72374 19.5322 2.97765 21.603L1.2909 26.3021L10.9638 29.7757L11.3902 28.5874L7.47919 27.1822L8.41815 24.5696L13.2113 23.5153L13.7073 22.1342L8.89294 23.2444L8.87937 23.2389L8.88234 23.2419H8.88192ZM10.5153 37.9377L10.561 30.5535L9.40206 30.5455L9.36178 36.6689L5.76488 36.6477L5.79964 30.9936L4.69747 30.9851L4.66229 36.6397L1.40367 36.6185L1.44097 30.4946L0.282416 30.4861L0.236633 37.8737L10.5153 37.9377ZM50.4682 37.9216H51.7315V28.8019H55.6073V27.6434H46.5919V28.8019H50.4682V37.9216ZM36.4019 37.9216H37.6652V29.4348H37.6949L43.8776 37.9216H45.2723V27.6434H43.9955V36.1301H43.9662L37.7835 27.6434H36.4019V37.9216ZM27.3709 37.9216H34.758V36.76H28.6341V33.1636H34.2883V32.0614H28.6341V28.8019H34.758V27.6434H27.3709V37.9216ZM21.0436 38.142C24.0237 38.142 25.8876 36.3069 25.8876 33.7804V32.8846H21.1881V33.9707H24.6108C24.5947 35.6151 23.2882 36.9805 21.0431 36.9805C18.7981 36.9805 17.1516 35.2903 17.1516 32.7795C17.1516 30.2691 18.782 28.5794 21.0431 28.5794C22.8058 28.5794 24.1279 29.5637 24.5811 31.2967L25.8287 30.988C25.3726 28.9041 23.4654 27.4208 21.0406 27.4208C17.9854 27.4208 15.8426 29.7112 15.8426 32.7799C15.8426 35.8482 17.9854 38.139 21.0406 38.139" fill="white"/>
</g>
<defs>
<clipPath id="clip0_217_248">
<rect width="70.7935" height="39" fill="white" transform="translate(0.239624)"/>
</clipPath>
</defs>
</svg>
