<svg width="193" height="160" viewBox="0 0 193 160" fill="none" xmlns="http://www.w3.org/2000/svg">
<g id="Icon" clip-path="url(#clip0_217_329)">
<path id="Vector" d="M0 0H193V160H91.5258V94H0V0Z" fill="#FF5000"/>
<path id="Vector_2" d="M19.8969 54.74L24.7916 54C25.8063 65 32.6409 70.6 44.9969 70.6C54.7861 70.6 60.9144 66.46 60.9144 59.89C60.9144 53.32 56.0993 50.2 42.0123 47.39C26.7812 44.39 21.419 40.51 21.419 32.85C21.4489 24 29.3778 18 41.0274 18C52.6771 18 61.6804 24.88 63.1727 35L58.278 36C57.0345 27.63 50.4287 22.48 41.0274 22.48C32.2529 22.48 26.3435 26.54 26.3435 32.71C26.3435 37.87 30.4622 40.37 43.2559 42.95C59.6907 46.29 65.8986 50.83 65.8986 59.74C65.8986 69.04 57.6612 75.06 44.9173 75.06C30.0742 75.06 20.8321 67.55 19.8969 54.74ZM90.7896 24.45H69.8083V19.97H116.785V24.45H95.8036V74.07H90.7896V24.45ZM158.847 61.94H125.699L120.227 74.07H114.825L139.617 20H144.849L169.631 74.1H164.319L158.847 61.94ZM156.967 57.69L142.352 25.22H142.193L127.569 57.69H156.967ZM111.89 84.89H118.536L142.193 131.35H142.342L165.92 84.89H172.566V139H167.622V91.7H167.472L143.278 139H141.188L116.994 91.7H116.835V139H111.89V84.89ZM166.696 25.87H173.551V18.98H166.696V25.87Z" fill="#2A2A2A"/>
</g>
<defs>
<clipPath id="clip0_217_329">
<rect width="193" height="160" fill="white"/>
</clipPath>
</defs>
</svg>
